solid 
   facet normal -1.000000e+00 0.000000e+00 0.000000e+00
      outer loop
         vertex -4.000000e+01 2.000000e+01 -3.500000e+01
         vertex -4.000000e+01 2.143132e-15 -3.500000e+01
         vertex -4.000000e+01 9.578121e+00 -3.474481e+00
      endloop
   endfacet
   facet normal -1.000000e+00 -0.000000e+00 0.000000e+00
      outer loop
         vertex -4.000000e+01 -2.143132e-15 3.500000e+01
         vertex -4.000000e+01 2.000000e+01 3.500000e+01
         vertex -4.000000e+01 9.578121e+00 3.474481e+00
      endloop
   endfacet
   facet normal -1.000000e+00 0.000000e+00 0.000000e+00
      outer loop
         vertex -4.000000e+01 6.900904e+00 1.626531e+00
         vertex -4.000000e+01 6.500000e+00 3.980102e-16
         vertex -4.000000e+01 -2.143132e-15 3.500000e+01
      endloop
   endfacet
   facet normal -1.000000e+00 -0.000000e+00 0.000000e+00
      outer loop
         vertex -4.000000e+01 6.900904e+00 -1.626531e+00
         vertex -4.000000e+01 8.011773e+00 -2.880444e+00
         vertex -4.000000e+01 2.143132e-15 -3.500000e+01
      endloop
   endfacet
   facet normal -1.000000e+00 0.000000e+00 -0.000000e+00
      outer loop
         vertex -4.000000e+01 9.578121e+00 -3.474481e+00
         vertex -4.000000e+01 1.124112e+01 -3.272557e+00
         vertex -4.000000e+01 2.000000e+01 -3.500000e+01
      endloop
   endfacet
   facet normal -1.000000e+00 0.000000e+00 -0.000000e+00
      outer loop
         vertex -4.000000e+01 1.261979e+01 -2.320929e+00
         vertex -4.000000e+01 1.339830e+01 -8.376048e-01
         vertex -4.000000e+01 2.000000e+01 -3.500000e+01
      endloop
   endfacet
   facet normal -1.000000e+00 0.000000e+00 0.000000e+00
      outer loop
         vertex -4.000000e+01 1.339830e+01 8.376048e-01
         vertex -4.000000e+01 1.261979e+01 2.320929e+00
         vertex -4.000000e+01 2.000000e+01 3.500000e+01
      endloop
   endfacet
   facet normal -1.000000e+00 0.000000e+00 0.000000e+00
      outer loop
         vertex -4.000000e+01 1.124112e+01 3.272557e+00
         vertex -4.000000e+01 9.578121e+00 3.474481e+00
         vertex -4.000000e+01 2.000000e+01 3.500000e+01
      endloop
   endfacet
   facet normal -1.000000e+00 0.000000e+00 0.000000e+00
      outer loop
         vertex -4.000000e+01 8.011773e+00 2.880444e+00
         vertex -4.000000e+01 6.900904e+00 1.626531e+00
         vertex -4.000000e+01 -2.143132e-15 3.500000e+01
      endloop
   endfacet
   facet normal -1.000000e+00 -0.000000e+00 0.000000e+00
      outer loop
         vertex -4.000000e+01 -2.143132e-15 3.500000e+01
         vertex -4.000000e+01 9.578121e+00 3.474481e+00
         vertex -4.000000e+01 8.011773e+00 2.880444e+00
      endloop
   endfacet
   facet normal -1.000000e+00 0.000000e+00 -0.000000e+00
      outer loop
         vertex -4.000000e+01 2.143132e-15 -3.500000e+01
         vertex -4.000000e+01 8.011773e+00 -2.880444e+00
         vertex -4.000000e+01 9.578121e+00 -3.474481e+00
      endloop
   endfacet
   facet normal -1.000000e+00 0.000000e+00 0.000000e+00
      outer loop
         vertex -4.000000e+01 1.339830e+01 8.376048e-01
         vertex -4.000000e+01 2.000000e+01 3.500000e+01
         vertex -4.000000e+01 1.339830e+01 -8.376048e-01
      endloop
   endfacet
   facet normal -1.000000e+00 0.000000e+00 -0.000000e+00
      outer loop
         vertex -4.000000e+01 1.339830e+01 -8.376048e-01
         vertex -4.000000e+01 2.000000e+01 3.500000e+01
         vertex -4.000000e+01 2.000000e+01 -3.500000e+01
      endloop
   endfacet
   facet normal -1.000000e+00 0.000000e+00 0.000000e+00
      outer loop
         vertex -4.000000e+01 2.143132e-15 -3.500000e+01
         vertex -4.000000e+01 -2.143132e-15 3.500000e+01
         vertex -4.000000e+01 6.500000e+00 3.980102e-16
      endloop
   endfacet
   facet normal -1.000000e+00 0.000000e+00 -0.000000e+00
      outer loop
         vertex -4.000000e+01 1.124112e+01 -3.272557e+00
         vertex -4.000000e+01 1.261979e+01 -2.320929e+00
         vertex -4.000000e+01 2.000000e+01 -3.500000e+01
      endloop
   endfacet
   facet normal -1.000000e+00 0.000000e+00 0.000000e+00
      outer loop
         vertex -4.000000e+01 6.900904e+00 -1.626531e+00
         vertex -4.000000e+01 2.143132e-15 -3.500000e+01
         vertex -4.000000e+01 6.500000e+00 3.980102e-16
      endloop
   endfacet
   facet normal -1.000000e+00 0.000000e+00 0.000000e+00
      outer loop
         vertex -4.000000e+01 1.261979e+01 2.320929e+00
         vertex -4.000000e+01 1.124112e+01 3.272557e+00
         vertex -4.000000e+01 2.000000e+01 3.500000e+01
      endloop
   endfacet
   facet normal 0.000000e+00 9.709418e-01 -2.393155e-01
      outer loop
         vertex -1.000000e+01 6.900904e+00 1.626531e+00
         vertex -1.000000e+01 6.500000e+00 3.980102e-16
         vertex -4.000000e+01 6.500000e+00 3.980102e-16
      endloop
   endfacet
   facet normal 0.000000e+00 3.546049e-01 -9.350162e-01
      outer loop
         vertex -4.000000e+01 9.578121e+00 3.474481e+00
         vertex -1.000000e+01 9.578121e+00 3.474481e+00
         vertex -1.000000e+01 8.011773e+00 2.880444e+00
      endloop
   endfacet
   facet normal -0.000000e+00 -5.680649e-01 -8.229837e-01
      outer loop
         vertex -4.000000e+01 1.261979e+01 2.320929e+00
         vertex -1.000000e+01 1.261979e+01 2.320929e+00
         vertex -1.000000e+01 1.124112e+01 3.272557e+00
      endloop
   endfacet
   facet normal 0.000000e+00 -1.000000e+00 0.000000e+00
      outer loop
         vertex -4.000000e+01 1.339830e+01 -8.376048e-01
         vertex -1.000000e+01 1.339830e+01 -8.376048e-01
         vertex -1.000000e+01 1.339830e+01 8.376048e-01
      endloop
   endfacet
   facet normal 0.000000e+00 -5.680649e-01 8.229837e-01
      outer loop
         vertex -4.000000e+01 1.124112e+01 -3.272557e+00
         vertex -1.000000e+01 1.124112e+01 -3.272557e+00
         vertex -1.000000e+01 1.261979e+01 -2.320929e+00
      endloop
   endfacet
   facet normal 0.000000e+00 3.546049e-01 9.350162e-01
      outer loop
         vertex -4.000000e+01 8.011773e+00 -2.880444e+00
         vertex -1.000000e+01 8.011773e+00 -2.880444e+00
         vertex -1.000000e+01 9.578121e+00 -3.474481e+00
      endloop
   endfacet
   facet normal 0.000000e+00 9.709418e-01 2.393155e-01
      outer loop
         vertex -4.000000e+01 6.500000e+00 3.980102e-16
         vertex -1.000000e+01 6.500000e+00 3.980102e-16
         vertex -1.000000e+01 6.900904e+00 -1.626531e+00
      endloop
   endfacet
   facet normal -0.000000e+00 7.485108e-01 6.631226e-01
      outer loop
         vertex -1.000000e+01 8.011773e+00 -2.880444e+00
         vertex -4.000000e+01 8.011773e+00 -2.880444e+00
         vertex -4.000000e+01 6.900904e+00 -1.626531e+00
      endloop
   endfacet
   facet normal 0.000000e+00 -1.205367e-01 9.927089e-01
      outer loop
         vertex -1.000000e+01 1.124112e+01 -3.272557e+00
         vertex -4.000000e+01 1.124112e+01 -3.272557e+00
         vertex -4.000000e+01 9.578121e+00 -3.474481e+00
      endloop
   endfacet
   facet normal 0.000000e+00 -8.854559e-01 4.647234e-01
      outer loop
         vertex -1.000000e+01 1.339830e+01 -8.376048e-01
         vertex -4.000000e+01 1.339830e+01 -8.376048e-01
         vertex -4.000000e+01 1.261979e+01 -2.320929e+00
      endloop
   endfacet
   facet normal 0.000000e+00 -8.854559e-01 -4.647234e-01
      outer loop
         vertex -1.000000e+01 1.261979e+01 2.320929e+00
         vertex -4.000000e+01 1.261979e+01 2.320929e+00
         vertex -4.000000e+01 1.339830e+01 8.376048e-01
      endloop
   endfacet
   facet normal 0.000000e+00 -1.205367e-01 -9.927089e-01
      outer loop
         vertex -1.000000e+01 9.578121e+00 3.474481e+00
         vertex -4.000000e+01 9.578121e+00 3.474481e+00
         vertex -4.000000e+01 1.124112e+01 3.272557e+00
      endloop
   endfacet
   facet normal 0.000000e+00 7.485108e-01 -6.631226e-01
      outer loop
         vertex -1.000000e+01 6.900904e+00 1.626531e+00
         vertex -4.000000e+01 6.900904e+00 1.626531e+00
         vertex -4.000000e+01 8.011773e+00 2.880444e+00
      endloop
   endfacet
   facet normal 0.000000e+00 9.709418e-01 -2.393155e-01
      outer loop
         vertex -4.000000e+01 6.900904e+00 1.626531e+00
         vertex -1.000000e+01 6.900904e+00 1.626531e+00
         vertex -4.000000e+01 6.500000e+00 3.980102e-16
      endloop
   endfacet
   facet normal 0.000000e+00 -1.000000e+00 0.000000e+00
      outer loop
         vertex -4.000000e+01 1.339830e+01 8.376048e-01
         vertex -4.000000e+01 1.339830e+01 -8.376048e-01
         vertex -1.000000e+01 1.339830e+01 8.376048e-01
      endloop
   endfacet
   facet normal 0.000000e+00 9.709418e-01 2.393155e-01
      outer loop
         vertex -4.000000e+01 6.900904e+00 -1.626531e+00
         vertex -4.000000e+01 6.500000e+00 3.980102e-16
         vertex -1.000000e+01 6.900904e+00 -1.626531e+00
      endloop
   endfacet
   facet normal 0.000000e+00 -8.854559e-01 4.647234e-01
      outer loop
         vertex -1.000000e+01 1.261979e+01 -2.320929e+00
         vertex -1.000000e+01 1.339830e+01 -8.376048e-01
         vertex -4.000000e+01 1.261979e+01 -2.320929e+00
      endloop
   endfacet
   facet normal 0.000000e+00 7.485108e-01 -6.631226e-01
      outer loop
         vertex -1.000000e+01 8.011773e+00 2.880444e+00
         vertex -1.000000e+01 6.900904e+00 1.626531e+00
         vertex -4.000000e+01 8.011773e+00 2.880444e+00
      endloop
   endfacet
   facet normal 0.000000e+00 -5.680649e-01 8.229837e-01
      outer loop
         vertex -4.000000e+01 1.124112e+01 -3.272557e+00
         vertex -1.000000e+01 1.261979e+01 -2.320929e+00
         vertex -4.000000e+01 1.261979e+01 -2.320929e+00
      endloop
   endfacet
   facet normal -0.000000e+00 -1.205367e-01 -9.927089e-01
      outer loop
         vertex -4.000000e+01 1.124112e+01 3.272557e+00
         vertex -1.000000e+01 1.124112e+01 3.272557e+00
         vertex -1.000000e+01 9.578121e+00 3.474481e+00
      endloop
   endfacet
   facet normal 0.000000e+00 -1.205367e-01 9.927089e-01
      outer loop
         vertex -4.000000e+01 9.578121e+00 -3.474481e+00
         vertex -1.000000e+01 9.578121e+00 -3.474481e+00
         vertex -1.000000e+01 1.124112e+01 -3.272557e+00
      endloop
   endfacet
   facet normal -0.000000e+00 3.546049e-01 9.350162e-01
      outer loop
         vertex -1.000000e+01 9.578121e+00 -3.474481e+00
         vertex -4.000000e+01 9.578121e+00 -3.474481e+00
         vertex -4.000000e+01 8.011773e+00 -2.880444e+00
      endloop
   endfacet
   facet normal 0.000000e+00 3.546049e-01 -9.350162e-01
      outer loop
         vertex -1.000000e+01 8.011773e+00 2.880444e+00
         vertex -4.000000e+01 8.011773e+00 2.880444e+00
         vertex -4.000000e+01 9.578121e+00 3.474481e+00
      endloop
   endfacet
   facet normal 0.000000e+00 7.485108e-01 6.631226e-01
      outer loop
         vertex -1.000000e+01 6.900904e+00 -1.626531e+00
         vertex -1.000000e+01 8.011773e+00 -2.880444e+00
         vertex -4.000000e+01 6.900904e+00 -1.626531e+00
      endloop
   endfacet
   facet normal -0.000000e+00 -5.680649e-01 -8.229837e-01
      outer loop
         vertex -4.000000e+01 1.261979e+01 2.320929e+00
         vertex -1.000000e+01 1.124112e+01 3.272557e+00
         vertex -4.000000e+01 1.124112e+01 3.272557e+00
      endloop
   endfacet
   facet normal -0.000000e+00 -8.854559e-01 -4.647234e-01
      outer loop
         vertex -4.000000e+01 1.339830e+01 8.376048e-01
         vertex -1.000000e+01 1.339830e+01 8.376048e-01
         vertex -1.000000e+01 1.261979e+01 2.320929e+00
      endloop
   endfacet
   facet normal 0.000000e+00 -1.000000e+00 -6.123234e-17
      outer loop
         vertex 4.000000e+01 -2.143132e-15 3.500000e+01
         vertex -4.000000e+01 -2.143132e-15 3.500000e+01
         vertex -4.000000e+01 2.143132e-15 -3.500000e+01
      endloop
   endfacet
   facet normal 0.000000e+00 -1.000000e+00 -6.123234e-17
      outer loop
         vertex 4.000000e+01 -2.143132e-15 3.500000e+01
         vertex -4.000000e+01 2.143132e-15 -3.500000e+01
         vertex 4.000000e+01 2.143132e-15 -3.500000e+01
      endloop
   endfacet
   facet normal 0.000000e+00 0.000000e+00 1.000000e+00
      outer loop
         vertex -4.000000e+01 2.000000e+01 3.500000e+01
         vertex -4.000000e+01 -2.143132e-15 3.500000e+01
         vertex 1.809789e+01 9.381966e+00 3.500000e+01
      endloop
   endfacet
   facet normal 0.000000e+00 0.000000e+00 1.000000e+00
      outer loop
         vertex 4.000000e+01 -2.143132e-15 3.500000e+01
         vertex 4.000000e+01 2.000000e+01 3.500000e+01
         vertex 2.190211e+01 1.061803e+01 3.500000e+01
      endloop
   endfacet
   facet normal -0.000000e+00 0.000000e+00 1.000000e+00
      outer loop
         vertex 2.117557e+01 8.381966e+00 3.500000e+01
         vertex 2.000000e+01 8.000000e+00 3.500000e+01
         vertex 4.000000e+01 -2.143132e-15 3.500000e+01
      endloop
   endfacet
   facet normal 0.000000e+00 0.000000e+00 1.000000e+00
      outer loop
         vertex 1.882443e+01 8.381966e+00 3.500000e+01
         vertex 1.809789e+01 9.381966e+00 3.500000e+01
         vertex -4.000000e+01 -2.143132e-15 3.500000e+01
      endloop
   endfacet
   facet normal 0.000000e+00 0.000000e+00 1.000000e+00
      outer loop
         vertex 1.809789e+01 1.061803e+01 3.500000e+01
         vertex 1.882443e+01 1.161803e+01 3.500000e+01
         vertex -4.000000e+01 2.000000e+01 3.500000e+01
      endloop
   endfacet
   facet normal 0.000000e+00 -0.000000e+00 1.000000e+00
      outer loop
         vertex 2.000000e+01 1.200000e+01 3.500000e+01
         vertex 2.117557e+01 1.161803e+01 3.500000e+01
         vertex 4.000000e+01 2.000000e+01 3.500000e+01
      endloop
   endfacet
   facet normal -0.000000e+00 0.000000e+00 1.000000e+00
      outer loop
         vertex 2.190211e+01 1.061803e+01 3.500000e+01
         vertex 2.190211e+01 9.381966e+00 3.500000e+01
         vertex 4.000000e+01 -2.143132e-15 3.500000e+01
      endloop
   endfacet
   facet normal 0.000000e+00 -0.000000e+00 1.000000e+00
      outer loop
         vertex -4.000000e+01 2.000000e+01 3.500000e+01
         vertex 1.809789e+01 9.381966e+00 3.500000e+01
         vertex 1.809789e+01 1.061803e+01 3.500000e+01
      endloop
   endfacet
   facet normal 0.000000e+00 0.000000e+00 1.000000e+00
      outer loop
         vertex 4.000000e+01 -2.143132e-15 3.500000e+01
         vertex 2.000000e+01 8.000000e+00 3.500000e+01
         vertex -4.000000e+01 -2.143132e-15 3.500000e+01
      endloop
   endfacet
   facet normal 0.000000e+00 0.000000e+00 1.000000e+00
      outer loop
         vertex 2.000000e+01 1.200000e+01 3.500000e+01
         vertex 4.000000e+01 2.000000e+01 3.500000e+01
         vertex -4.000000e+01 2.000000e+01 3.500000e+01
      endloop
   endfacet
   facet normal 0.000000e+00 0.000000e+00 1.000000e+00
      outer loop
         vertex -4.000000e+01 -2.143132e-15 3.500000e+01
         vertex 2.000000e+01 8.000000e+00 3.500000e+01
         vertex 1.882443e+01 8.381966e+00 3.500000e+01
      endloop
   endfacet
   facet normal 0.000000e+00 0.000000e+00 1.000000e+00
      outer loop
         vertex 1.882443e+01 1.161803e+01 3.500000e+01
         vertex 2.000000e+01 1.200000e+01 3.500000e+01
         vertex -4.000000e+01 2.000000e+01 3.500000e+01
      endloop
   endfacet
   facet normal -0.000000e+00 0.000000e+00 1.000000e+00
      outer loop
         vertex 2.190211e+01 9.381966e+00 3.500000e+01
         vertex 2.117557e+01 8.381966e+00 3.500000e+01
         vertex 4.000000e+01 -2.143132e-15 3.500000e+01
      endloop
   endfacet
   facet normal -0.000000e+00 0.000000e+00 1.000000e+00
      outer loop
         vertex 4.000000e+01 2.000000e+01 3.500000e+01
         vertex 2.117557e+01 1.161803e+01 3.500000e+01
         vertex 2.190211e+01 1.061803e+01 3.500000e+01
      endloop
   endfacet
   facet normal 0.000000e+00 1.000000e+00 0.000000e+00
      outer loop
         vertex 4.000000e+01 2.000000e+01 -3.500000e+01
         vertex -4.000000e+01 2.000000e+01 -3.500000e+01
         vertex -4.000000e+01 2.000000e+01 3.500000e+01
      endloop
   endfacet
   facet normal 0.000000e+00 1.000000e+00 -0.000000e+00
      outer loop
         vertex 4.000000e+01 2.000000e+01 3.500000e+01
         vertex 4.000000e+01 2.000000e+01 -3.500000e+01
         vertex -4.000000e+01 2.000000e+01 3.500000e+01
      endloop
   endfacet
   facet normal 0.000000e+00 0.000000e+00 -1.000000e+00
      outer loop
         vertex 4.000000e+01 2.000000e+01 -3.500000e+01
         vertex 4.000000e+01 2.143132e-15 -3.500000e+01
         vertex 2.200000e+01 1.000000e+01 -3.500000e+01
      endloop
   endfacet
   facet normal 0.000000e+00 0.000000e+00 -1.000000e+00
      outer loop
         vertex -4.000000e+01 2.143132e-15 -3.500000e+01
         vertex -4.000000e+01 2.000000e+01 -3.500000e+01
         vertex 1.800000e+01 1.000000e+01 -3.500000e+01
      endloop
   endfacet
   facet normal 0.000000e+00 -0.000000e+00 -1.000000e+00
      outer loop
         vertex 2.161803e+01 8.824430e+00 -3.500000e+01
         vertex 2.200000e+01 1.000000e+01 -3.500000e+01
         vertex 4.000000e+01 2.143132e-15 -3.500000e+01
      endloop
   endfacet
   facet normal 0.000000e+00 0.000000e+00 -1.000000e+00
      outer loop
         vertex 2.161803e+01 1.117557e+01 -3.500000e+01
         vertex 2.061803e+01 1.190211e+01 -3.500000e+01
         vertex 4.000000e+01 2.000000e+01 -3.500000e+01
      endloop
   endfacet
   facet normal 0.000000e+00 0.000000e+00 -1.000000e+00
      outer loop
         vertex 1.938197e+01 1.190211e+01 -3.500000e+01
         vertex 1.838197e+01 1.117557e+01 -3.500000e+01
         vertex -4.000000e+01 2.000000e+01 -3.500000e+01
      endloop
   endfacet
   facet normal -0.000000e+00 0.000000e+00 -1.000000e+00
      outer loop
         vertex 1.800000e+01 1.000000e+01 -3.500000e+01
         vertex 1.838197e+01 8.824430e+00 -3.500000e+01
         vertex -4.000000e+01 2.143132e-15 -3.500000e+01
      endloop
   endfacet
   facet normal -0.000000e+00 -0.000000e+00 -1.000000e+00
      outer loop
         vertex 1.938197e+01 8.097887e+00 -3.500000e+01
         vertex 2.061803e+01 8.097887e+00 -3.500000e+01
         vertex 4.000000e+01 2.143132e-15 -3.500000e+01
      endloop
   endfacet
   facet normal 0.000000e+00 0.000000e+00 -1.000000e+00
      outer loop
         vertex 4.000000e+01 2.000000e+01 -3.500000e+01
         vertex 2.200000e+01 1.000000e+01 -3.500000e+01
         vertex 2.161803e+01 1.117557e+01 -3.500000e+01
      endloop
   endfacet
   facet normal 0.000000e+00 0.000000e+00 -1.000000e+00
      outer loop
         vertex 4.000000e+01 2.000000e+01 -3.500000e+01
         vertex 2.061803e+01 1.190211e+01 -3.500000e+01
         vertex 1.938197e+01 1.190211e+01 -3.500000e+01
      endloop
   endfacet
   facet normal 0.000000e+00 -0.000000e+00 -1.000000e+00
      outer loop
         vertex -4.000000e+01 2.143132e-15 -3.500000e+01
         vertex 1.838197e+01 8.824430e+00 -3.500000e+01
         vertex 1.938197e+01 8.097887e+00 -3.500000e+01
      endloop
   endfacet
   facet normal 0.000000e+00 0.000000e+00 -1.000000e+00
      outer loop
         vertex 4.000000e+01 2.000000e+01 -3.500000e+01
         vertex 1.938197e+01 1.190211e+01 -3.500000e+01
         vertex -4.000000e+01 2.000000e+01 -3.500000e+01
      endloop
   endfacet
   facet normal 0.000000e+00 0.000000e+00 -1.000000e+00
      outer loop
         vertex 4.000000e+01 2.143132e-15 -3.500000e+01
         vertex -4.000000e+01 2.143132e-15 -3.500000e+01
         vertex 1.938197e+01 8.097887e+00 -3.500000e+01
      endloop
   endfacet
   facet normal 0.000000e+00 -0.000000e+00 -1.000000e+00
      outer loop
         vertex 2.061803e+01 8.097887e+00 -3.500000e+01
         vertex 2.161803e+01 8.824430e+00 -3.500000e+01
         vertex 4.000000e+01 2.143132e-15 -3.500000e+01
      endloop
   endfacet
   facet normal -0.000000e+00 0.000000e+00 -1.000000e+00
      outer loop
         vertex -4.000000e+01 2.000000e+01 -3.500000e+01
         vertex 1.838197e+01 1.117557e+01 -3.500000e+01
         vertex 1.800000e+01 1.000000e+01 -3.500000e+01
      endloop
   endfacet
   facet normal -1.000000e+00 0.000000e+00 0.000000e+00
      outer loop
         vertex -1.000000e+01 6.900904e+00 -1.626531e+00
         vertex -1.000000e+01 6.500000e+00 3.980102e-16
         vertex -1.000000e+01 6.900904e+00 1.626531e+00
      endloop
   endfacet
   facet normal -1.000000e+00 0.000000e+00 0.000000e+00
      outer loop
         vertex -1.000000e+01 8.011773e+00 2.880444e+00
         vertex -1.000000e+01 9.578121e+00 3.474481e+00
         vertex -1.000000e+01 6.900904e+00 1.626531e+00
      endloop
   endfacet
   facet normal -1.000000e+00 -0.000000e+00 -0.000000e+00
      outer loop
         vertex -1.000000e+01 1.261979e+01 2.320929e+00
         vertex -1.000000e+01 1.339830e+01 8.376048e-01
         vertex -1.000000e+01 1.339830e+01 -8.376048e-01
      endloop
   endfacet
   facet normal -1.000000e+00 0.000000e+00 0.000000e+00
      outer loop
         vertex -1.000000e+01 1.261979e+01 -2.320929e+00
         vertex -1.000000e+01 1.124112e+01 -3.272557e+00
         vertex -1.000000e+01 1.339830e+01 -8.376048e-01
      endloop
   endfacet
   facet normal -1.000000e+00 0.000000e+00 0.000000e+00
      outer loop
         vertex -1.000000e+01 8.011773e+00 -2.880444e+00
         vertex -1.000000e+01 6.900904e+00 -1.626531e+00
         vertex -1.000000e+01 9.578121e+00 -3.474481e+00
      endloop
   endfacet
   facet normal -1.000000e+00 0.000000e+00 0.000000e+00
      outer loop
         vertex -1.000000e+01 1.261979e+01 2.320929e+00
         vertex -1.000000e+01 1.339830e+01 -8.376048e-01
         vertex -1.000000e+01 6.900904e+00 1.626531e+00
      endloop
   endfacet
   facet normal -1.000000e+00 0.000000e+00 0.000000e+00
      outer loop
         vertex -1.000000e+01 9.578121e+00 -3.474481e+00
         vertex -1.000000e+01 6.900904e+00 -1.626531e+00
         vertex -1.000000e+01 6.900904e+00 1.626531e+00
      endloop
   endfacet
   facet normal -1.000000e+00 0.000000e+00 0.000000e+00
      outer loop
         vertex -1.000000e+01 9.578121e+00 -3.474481e+00
         vertex -1.000000e+01 6.900904e+00 1.626531e+00
         vertex -1.000000e+01 1.339830e+01 -8.376048e-01
      endloop
   endfacet
   facet normal -1.000000e+00 -0.000000e+00 0.000000e+00
      outer loop
         vertex -1.000000e+01 9.578121e+00 3.474481e+00
         vertex -1.000000e+01 1.124112e+01 3.272557e+00
         vertex -1.000000e+01 6.900904e+00 1.626531e+00
      endloop
   endfacet
   facet normal -1.000000e+00 0.000000e+00 0.000000e+00
      outer loop
         vertex -1.000000e+01 1.124112e+01 -3.272557e+00
         vertex -1.000000e+01 9.578121e+00 -3.474481e+00
         vertex -1.000000e+01 1.339830e+01 -8.376048e-01
      endloop
   endfacet
   facet normal -1.000000e+00 0.000000e+00 -0.000000e+00
      outer loop
         vertex -1.000000e+01 6.900904e+00 1.626531e+00
         vertex -1.000000e+01 1.124112e+01 3.272557e+00
         vertex -1.000000e+01 1.261979e+01 2.320929e+00
      endloop
   endfacet
   facet normal 1.000000e+00 -0.000000e+00 0.000000e+00
      outer loop
         vertex 4.000000e+01 2.000000e+01 3.500000e+01
         vertex 4.000000e+01 -2.143132e-15 3.500000e+01
         vertex 4.000000e+01 2.143132e-15 -3.500000e+01
      endloop
   endfacet
   facet normal 1.000000e+00 0.000000e+00 0.000000e+00
      outer loop
         vertex 4.000000e+01 2.000000e+01 -3.500000e+01
         vertex 4.000000e+01 2.000000e+01 3.500000e+01
         vertex 4.000000e+01 2.143132e-15 -3.500000e+01
      endloop
   endfacet
   facet normal 3.090165e-01 -9.510567e-01 0.000000e+00
      outer loop
         vertex 2.000000e+01 8.000000e+00 4.500000e+01
         vertex 2.000000e+01 8.000000e+00 3.500000e+01
         vertex 2.117557e+01 8.381966e+00 3.500000e+01
      endloop
   endfacet
   facet normal 1.000000e+00 0.000000e+00 -0.000000e+00
      outer loop
         vertex 2.190211e+01 9.381966e+00 3.500000e+01
         vertex 2.190211e+01 1.061803e+01 3.500000e+01
         vertex 2.190211e+01 1.061803e+01 4.500000e+01
      endloop
   endfacet
   facet normal 3.090165e-01 9.510567e-01 -0.000000e+00
      outer loop
         vertex 2.117557e+01 1.161803e+01 3.500000e+01
         vertex 2.000000e+01 1.200000e+01 3.500000e+01
         vertex 2.000000e+01 1.200000e+01 4.500000e+01
      endloop
   endfacet
   facet normal -8.090174e-01 5.877847e-01 0.000000e+00
      outer loop
         vertex 1.882443e+01 1.161803e+01 3.500000e+01
         vertex 1.809789e+01 1.061803e+01 3.500000e+01
         vertex 1.809789e+01 1.061803e+01 4.500000e+01
      endloop
   endfacet
   facet normal -8.090174e-01 -5.877847e-01 0.000000e+00
      outer loop
         vertex 1.809789e+01 9.381966e+00 3.500000e+01
         vertex 1.882443e+01 8.381966e+00 3.500000e+01
         vertex 1.882443e+01 8.381966e+00 4.500000e+01
      endloop
   endfacet
   facet normal -3.090165e-01 -9.510567e-01 -0.000000e+00
      outer loop
         vertex 2.000000e+01 8.000000e+00 3.500000e+01
         vertex 2.000000e+01 8.000000e+00 4.500000e+01
         vertex 1.882443e+01 8.381966e+00 3.500000e+01
      endloop
   endfacet
   facet normal -1.000000e+00 -0.000000e+00 -0.000000e+00
      outer loop
         vertex 1.809789e+01 9.381966e+00 4.500000e+01
         vertex 1.809789e+01 1.061803e+01 4.500000e+01
         vertex 1.809789e+01 1.061803e+01 3.500000e+01
      endloop
   endfacet
   facet normal -3.090165e-01 9.510567e-01 0.000000e+00
      outer loop
         vertex 1.882443e+01 1.161803e+01 4.500000e+01
         vertex 2.000000e+01 1.200000e+01 4.500000e+01
         vertex 2.000000e+01 1.200000e+01 3.500000e+01
      endloop
   endfacet
   facet normal 8.090174e-01 5.877847e-01 0.000000e+00
      outer loop
         vertex 2.117557e+01 1.161803e+01 4.500000e+01
         vertex 2.190211e+01 1.061803e+01 4.500000e+01
         vertex 2.190211e+01 1.061803e+01 3.500000e+01
      endloop
   endfacet
   facet normal 8.090174e-01 -5.877847e-01 0.000000e+00
      outer loop
         vertex 2.190211e+01 9.381966e+00 4.500000e+01
         vertex 2.117557e+01 8.381966e+00 4.500000e+01
         vertex 2.117557e+01 8.381966e+00 3.500000e+01
      endloop
   endfacet
   facet normal 3.090165e-01 -9.510567e-01 0.000000e+00
      outer loop
         vertex 2.000000e+01 8.000000e+00 4.500000e+01
         vertex 2.117557e+01 8.381966e+00 3.500000e+01
         vertex 2.117557e+01 8.381966e+00 4.500000e+01
      endloop
   endfacet
   facet normal -8.090174e-01 5.877847e-01 0.000000e+00
      outer loop
         vertex 1.882443e+01 1.161803e+01 3.500000e+01
         vertex 1.809789e+01 1.061803e+01 4.500000e+01
         vertex 1.882443e+01 1.161803e+01 4.500000e+01
      endloop
   endfacet
   facet normal -3.090165e-01 -9.510567e-01 0.000000e+00
      outer loop
         vertex 1.882443e+01 8.381966e+00 3.500000e+01
         vertex 2.000000e+01 8.000000e+00 4.500000e+01
         vertex 1.882443e+01 8.381966e+00 4.500000e+01
      endloop
   endfacet
   facet normal 8.090174e-01 -5.877847e-01 0.000000e+00
      outer loop
         vertex 2.190211e+01 9.381966e+00 4.500000e+01
         vertex 2.117557e+01 8.381966e+00 3.500000e+01
         vertex 2.190211e+01 9.381966e+00 3.500000e+01
      endloop
   endfacet
   facet normal 8.090174e-01 5.877847e-01 -0.000000e+00
      outer loop
         vertex 2.190211e+01 1.061803e+01 3.500000e+01
         vertex 2.117557e+01 1.161803e+01 3.500000e+01
         vertex 2.117557e+01 1.161803e+01 4.500000e+01
      endloop
   endfacet
   facet normal -1.000000e+00 0.000000e+00 0.000000e+00
      outer loop
         vertex 1.809789e+01 1.061803e+01 3.500000e+01
         vertex 1.809789e+01 9.381966e+00 3.500000e+01
         vertex 1.809789e+01 9.381966e+00 4.500000e+01
      endloop
   endfacet
   facet normal 3.090165e-01 9.510567e-01 0.000000e+00
      outer loop
         vertex 2.000000e+01 1.200000e+01 4.500000e+01
         vertex 2.117557e+01 1.161803e+01 4.500000e+01
         vertex 2.117557e+01 1.161803e+01 3.500000e+01
      endloop
   endfacet
   facet normal 1.000000e+00 0.000000e+00 0.000000e+00
      outer loop
         vertex 2.190211e+01 9.381966e+00 3.500000e+01
         vertex 2.190211e+01 1.061803e+01 4.500000e+01
         vertex 2.190211e+01 9.381966e+00 4.500000e+01
      endloop
   endfacet
   facet normal -3.090165e-01 9.510567e-01 0.000000e+00
      outer loop
         vertex 1.882443e+01 1.161803e+01 3.500000e+01
         vertex 1.882443e+01 1.161803e+01 4.500000e+01
         vertex 2.000000e+01 1.200000e+01 3.500000e+01
      endloop
   endfacet
   facet normal -8.090174e-01 -5.877847e-01 -0.000000e+00
      outer loop
         vertex 1.882443e+01 8.381966e+00 4.500000e+01
         vertex 1.809789e+01 9.381966e+00 4.500000e+01
         vertex 1.809789e+01 9.381966e+00 3.500000e+01
      endloop
   endfacet
   facet normal 9.510566e-01 -3.090167e-01 0.000000e+00
      outer loop
         vertex 2.200000e+01 1.000000e+01 -4.500000e+01
         vertex 2.200000e+01 1.000000e+01 -3.500000e+01
         vertex 2.161803e+01 8.824430e+00 -3.500000e+01
      endloop
   endfacet
   facet normal 0.000000e+00 -1.000000e+00 0.000000e+00
      outer loop
         vertex 2.061803e+01 8.097887e+00 -3.500000e+01
         vertex 1.938197e+01 8.097887e+00 -3.500000e+01
         vertex 1.938197e+01 8.097887e+00 -4.500000e+01
      endloop
   endfacet
   facet normal -9.510566e-01 -3.090167e-01 -0.000000e+00
      outer loop
         vertex 1.838197e+01 8.824430e+00 -3.500000e+01
         vertex 1.800000e+01 1.000000e+01 -3.500000e+01
         vertex 1.800000e+01 1.000000e+01 -4.500000e+01
      endloop
   endfacet
   facet normal -5.877852e-01 8.090170e-01 0.000000e+00
      outer loop
         vertex 1.838197e+01 1.117557e+01 -3.500000e+01
         vertex 1.938197e+01 1.190211e+01 -3.500000e+01
         vertex 1.938197e+01 1.190211e+01 -4.500000e+01
      endloop
   endfacet
   facet normal 5.877852e-01 8.090170e-01 0.000000e+00
      outer loop
         vertex 2.061803e+01 1.190211e+01 -3.500000e+01
         vertex 2.161803e+01 1.117557e+01 -3.500000e+01
         vertex 2.161803e+01 1.117557e+01 -4.500000e+01
      endloop
   endfacet
   facet normal 9.510566e-01 3.090167e-01 -0.000000e+00
      outer loop
         vertex 2.200000e+01 1.000000e+01 -3.500000e+01
         vertex 2.200000e+01 1.000000e+01 -4.500000e+01
         vertex 2.161803e+01 1.117557e+01 -3.500000e+01
      endloop
   endfacet
   facet normal 0.000000e+00 1.000000e+00 0.000000e+00
      outer loop
         vertex 2.061803e+01 1.190211e+01 -4.500000e+01
         vertex 1.938197e+01 1.190211e+01 -4.500000e+01
         vertex 1.938197e+01 1.190211e+01 -3.500000e+01
      endloop
   endfacet
   facet normal -9.510566e-01 3.090167e-01 0.000000e+00
      outer loop
         vertex 1.838197e+01 1.117557e+01 -4.500000e+01
         vertex 1.800000e+01 1.000000e+01 -4.500000e+01
         vertex 1.800000e+01 1.000000e+01 -3.500000e+01
      endloop
   endfacet
   facet normal -5.877852e-01 -8.090170e-01 0.000000e+00
      outer loop
         vertex 1.838197e+01 8.824430e+00 -4.500000e+01
         vertex 1.938197e+01 8.097887e+00 -4.500000e+01
         vertex 1.938197e+01 8.097887e+00 -3.500000e+01
      endloop
   endfacet
   facet normal 5.877852e-01 -8.090170e-01 0.000000e+00
      outer loop
         vertex 2.061803e+01 8.097887e+00 -4.500000e+01
         vertex 2.161803e+01 8.824430e+00 -4.500000e+01
         vertex 2.161803e+01 8.824430e+00 -3.500000e+01
      endloop
   endfacet
   facet normal 9.510566e-01 -3.090167e-01 0.000000e+00
      outer loop
         vertex 2.200000e+01 1.000000e+01 -4.500000e+01
         vertex 2.161803e+01 8.824430e+00 -3.500000e+01
         vertex 2.161803e+01 8.824430e+00 -4.500000e+01
      endloop
   endfacet
   facet normal -5.877852e-01 8.090170e-01 0.000000e+00
      outer loop
         vertex 1.838197e+01 1.117557e+01 -3.500000e+01
         vertex 1.938197e+01 1.190211e+01 -4.500000e+01
         vertex 1.838197e+01 1.117557e+01 -4.500000e+01
      endloop
   endfacet
   facet normal 9.510566e-01 3.090167e-01 0.000000e+00
      outer loop
         vertex 2.161803e+01 1.117557e+01 -3.500000e+01
         vertex 2.200000e+01 1.000000e+01 -4.500000e+01
         vertex 2.161803e+01 1.117557e+01 -4.500000e+01
      endloop
   endfacet
   facet normal 5.877852e-01 -8.090170e-01 0.000000e+00
      outer loop
         vertex 2.061803e+01 8.097887e+00 -4.500000e+01
         vertex 2.161803e+01 8.824430e+00 -3.500000e+01
         vertex 2.061803e+01 8.097887e+00 -3.500000e+01
      endloop
   endfacet
   facet normal -5.877852e-01 -8.090170e-01 -0.000000e+00
      outer loop
         vertex 1.938197e+01 8.097887e+00 -3.500000e+01
         vertex 1.838197e+01 8.824430e+00 -3.500000e+01
         vertex 1.838197e+01 8.824430e+00 -4.500000e+01
      endloop
   endfacet
   facet normal 0.000000e+00 1.000000e+00 0.000000e+00
      outer loop
         vertex 1.938197e+01 1.190211e+01 -3.500000e+01
         vertex 2.061803e+01 1.190211e+01 -3.500000e+01
         vertex 2.061803e+01 1.190211e+01 -4.500000e+01
      endloop
   endfacet
   facet normal -9.510566e-01 -3.090167e-01 0.000000e+00
      outer loop
         vertex 1.800000e+01 1.000000e+01 -4.500000e+01
         vertex 1.838197e+01 8.824430e+00 -4.500000e+01
         vertex 1.838197e+01 8.824430e+00 -3.500000e+01
      endloop
   endfacet
   facet normal 0.000000e+00 -1.000000e+00 0.000000e+00
      outer loop
         vertex 2.061803e+01 8.097887e+00 -3.500000e+01
         vertex 1.938197e+01 8.097887e+00 -4.500000e+01
         vertex 2.061803e+01 8.097887e+00 -4.500000e+01
      endloop
   endfacet
   facet normal -9.510566e-01 3.090167e-01 0.000000e+00
      outer loop
         vertex 1.838197e+01 1.117557e+01 -3.500000e+01
         vertex 1.838197e+01 1.117557e+01 -4.500000e+01
         vertex 1.800000e+01 1.000000e+01 -3.500000e+01
      endloop
   endfacet
   facet normal 5.877852e-01 8.090170e-01 -0.000000e+00
      outer loop
         vertex 2.161803e+01 1.117557e+01 -4.500000e+01
         vertex 2.061803e+01 1.190211e+01 -4.500000e+01
         vertex 2.061803e+01 1.190211e+01 -3.500000e+01
      endloop
   endfacet
   facet normal 0.000000e+00 0.000000e+00 1.000000e+00
      outer loop
         vertex 1.882443e+01 8.381966e+00 4.500000e+01
         vertex 2.000000e+01 8.000000e+00 4.500000e+01
         vertex 1.809789e+01 9.381966e+00 4.500000e+01
      endloop
   endfacet
   facet normal 0.000000e+00 0.000000e+00 1.000000e+00
      outer loop
         vertex 2.117557e+01 8.381966e+00 4.500000e+01
         vertex 2.190211e+01 9.381966e+00 4.500000e+01
         vertex 2.000000e+01 8.000000e+00 4.500000e+01
      endloop
   endfacet
   facet normal 0.000000e+00 0.000000e+00 1.000000e+00
      outer loop
         vertex 2.117557e+01 1.161803e+01 4.500000e+01
         vertex 2.000000e+01 1.200000e+01 4.500000e+01
         vertex 2.190211e+01 1.061803e+01 4.500000e+01
      endloop
   endfacet
   facet normal -0.000000e+00 0.000000e+00 1.000000e+00
      outer loop
         vertex 1.809789e+01 1.061803e+01 4.500000e+01
         vertex 1.809789e+01 9.381966e+00 4.500000e+01
         vertex 2.000000e+01 8.000000e+00 4.500000e+01
      endloop
   endfacet
   facet normal 0.000000e+00 0.000000e+00 1.000000e+00
      outer loop
         vertex 2.190211e+01 1.061803e+01 4.500000e+01
         vertex 2.000000e+01 1.200000e+01 4.500000e+01
         vertex 2.000000e+01 8.000000e+00 4.500000e+01
      endloop
   endfacet
   facet normal 0.000000e+00 0.000000e+00 1.000000e+00
      outer loop
         vertex 2.190211e+01 1.061803e+01 4.500000e+01
         vertex 2.000000e+01 8.000000e+00 4.500000e+01
         vertex 2.190211e+01 9.381966e+00 4.500000e+01
      endloop
   endfacet
   facet normal -0.000000e+00 0.000000e+00 1.000000e+00
      outer loop
         vertex 2.000000e+01 1.200000e+01 4.500000e+01
         vertex 1.882443e+01 1.161803e+01 4.500000e+01
         vertex 1.809789e+01 1.061803e+01 4.500000e+01
      endloop
   endfacet
   facet normal 0.000000e+00 0.000000e+00 1.000000e+00
      outer loop
         vertex 2.000000e+01 8.000000e+00 4.500000e+01
         vertex 2.000000e+01 1.200000e+01 4.500000e+01
         vertex 1.809789e+01 1.061803e+01 4.500000e+01
      endloop
   endfacet
   facet normal -0.000000e+00 0.000000e+00 -1.000000e+00
      outer loop
         vertex 2.161803e+01 1.117557e+01 -4.500000e+01
         vertex 2.200000e+01 1.000000e+01 -4.500000e+01
         vertex 2.161803e+01 8.824430e+00 -4.500000e+01
      endloop
   endfacet
   facet normal 0.000000e+00 0.000000e+00 -1.000000e+00
      outer loop
         vertex 2.061803e+01 8.097887e+00 -4.500000e+01
         vertex 1.938197e+01 8.097887e+00 -4.500000e+01
         vertex 2.161803e+01 8.824430e+00 -4.500000e+01
      endloop
   endfacet
   facet normal 0.000000e+00 -0.000000e+00 -1.000000e+00
      outer loop
         vertex 1.800000e+01 1.000000e+01 -4.500000e+01
         vertex 1.838197e+01 1.117557e+01 -4.500000e+01
         vertex 1.838197e+01 8.824430e+00 -4.500000e+01
      endloop
   endfacet
   facet normal 0.000000e+00 0.000000e+00 -1.000000e+00
      outer loop
         vertex 2.061803e+01 1.190211e+01 -4.500000e+01
         vertex 2.161803e+01 1.117557e+01 -4.500000e+01
         vertex 1.838197e+01 1.117557e+01 -4.500000e+01
      endloop
   endfacet
   facet normal 0.000000e+00 0.000000e+00 -1.000000e+00
      outer loop
         vertex 2.161803e+01 8.824430e+00 -4.500000e+01
         vertex 1.938197e+01 8.097887e+00 -4.500000e+01
         vertex 1.838197e+01 8.824430e+00 -4.500000e+01
      endloop
   endfacet
   facet normal -0.000000e+00 -0.000000e+00 -1.000000e+00
      outer loop
         vertex 1.838197e+01 1.117557e+01 -4.500000e+01
         vertex 2.161803e+01 1.117557e+01 -4.500000e+01
         vertex 2.161803e+01 8.824430e+00 -4.500000e+01
      endloop
   endfacet
   facet normal 0.000000e+00 -0.000000e+00 -1.000000e+00
      outer loop
         vertex 1.838197e+01 1.117557e+01 -4.500000e+01
         vertex 1.938197e+01 1.190211e+01 -4.500000e+01
         vertex 2.061803e+01 1.190211e+01 -4.500000e+01
      endloop
   endfacet
   facet normal 0.000000e+00 0.000000e+00 -1.000000e+00
      outer loop
         vertex 2.161803e+01 8.824430e+00 -4.500000e+01
         vertex 1.838197e+01 8.824430e+00 -4.500000e+01
         vertex 1.838197e+01 1.117557e+01 -4.500000e+01
      endloop
   endfacet
endsolid
